<svg xmlns="http://www.w3.org/2000/svg" viewBox="0 0 160 120"><rect width="160" height="120" fill="#563a2b"/><path d="M0 15h160M0 105h160" stroke="#e2c16c" stroke-width="4"/><path d="M47 83V61c0-11 11-19 25-19h25c12 0 20 8 20 19v22H47z" fill="#e2c16c"/><circle cx="105" cy="42" r="13" fill="#e2c16c"/><path d="M61 52C46 31 35 34 31 45c12 2 20 10 25 22M72 51c-10-20 3-28 14-26-4 11-2 20 5 29" fill="#e2c16c"/><path d="M57 82v15m24-15v15m25-15v15" stroke="#e2c16c" stroke-width="6"/><circle cx="109" cy="39" r="2.5" fill="#563a2b"/></svg>
